<mxfile host="Electron" modified="2024-03-14T09:33:01.088Z" agent="Mozilla/5.0 (Windows NT 10.0; Win64; x64) AppleWebKit/537.36 (KHTML, like Gecko) draw.io/21.7.5 Chrome/114.0.5735.289 Electron/25.8.1 Safari/537.36" etag="_i0ayG1ON4gCKkF8XaAV" version="21.7.5" type="device">
  <diagram name="Page-1" id="IOapeXRwTuUWi-dIo0kQ">
    <mxGraphModel dx="1219" dy="713" grid="1" gridSize="10" guides="1" tooltips="1" connect="1" arrows="1" fold="1" page="1" pageScale="1" pageWidth="850" pageHeight="1100" math="0" shadow="0">
      <root>
        <mxCell id="0" />
        <mxCell id="1" parent="0" />
        <mxCell id="ycMpsAOuZf68Req7lLvs-45" value="" style="html=1;dashed=0;whiteSpace=wrap;fillColor=none;movable=1;resizable=1;rotatable=1;deletable=1;editable=1;locked=0;connectable=1;" parent="1" vertex="1">
          <mxGeometry x="480" width="240" height="1350" as="geometry" />
        </mxCell>
        <mxCell id="ycMpsAOuZf68Req7lLvs-46" value="" style="html=1;dashed=0;whiteSpace=wrap;fillColor=none;movable=1;resizable=1;rotatable=1;deletable=1;editable=1;locked=0;connectable=1;" parent="1" vertex="1">
          <mxGeometry x="720" width="240" height="1350" as="geometry" />
        </mxCell>
        <mxCell id="ycMpsAOuZf68Req7lLvs-43" value="" style="html=1;dashed=0;whiteSpace=wrap;fillColor=none;movable=1;resizable=1;rotatable=1;deletable=1;editable=1;locked=0;connectable=1;" parent="1" vertex="1">
          <mxGeometry x="240" width="240" height="1350" as="geometry" />
        </mxCell>
        <mxCell id="ycMpsAOuZf68Req7lLvs-21" value="Registered Vehicle Renter" style="text;html=1;strokeColor=none;fillColor=none;align=center;verticalAlign=middle;whiteSpace=wrap;rounded=0;" parent="1" vertex="1">
          <mxGeometry x="305" y="10" width="110" height="30" as="geometry" />
        </mxCell>
        <mxCell id="ycMpsAOuZf68Req7lLvs-24" value="" style="ellipse;html=1;shape=startState;fillColor=#000000;strokeColor=#ff0000;" parent="1" vertex="1">
          <mxGeometry x="345" y="55" width="30" height="30" as="geometry" />
        </mxCell>
        <mxCell id="ycMpsAOuZf68Req7lLvs-25" value="" style="edgeStyle=orthogonalEdgeStyle;html=1;verticalAlign=bottom;endArrow=open;endSize=8;strokeColor=#ff0000;rounded=0;" parent="1" source="ycMpsAOuZf68Req7lLvs-24" target="ycMpsAOuZf68Req7lLvs-26" edge="1">
          <mxGeometry relative="1" as="geometry">
            <mxPoint x="345" y="145" as="targetPoint" />
          </mxGeometry>
        </mxCell>
        <mxCell id="ycMpsAOuZf68Req7lLvs-26" value="Filter Vehicle for Rent or Hire" style="rounded=1;whiteSpace=wrap;html=1;arcSize=40;fontColor=#000000;fillColor=#ffffc0;strokeColor=#ff0000;" parent="1" vertex="1">
          <mxGeometry x="299.97" y="120" width="120" height="40" as="geometry" />
        </mxCell>
        <mxCell id="ycMpsAOuZf68Req7lLvs-27" value="" style="edgeStyle=orthogonalEdgeStyle;html=1;verticalAlign=bottom;endArrow=open;endSize=8;strokeColor=#ff0000;rounded=0;entryX=0.5;entryY=0;entryDx=0;entryDy=0;" parent="1" source="ycMpsAOuZf68Req7lLvs-26" target="ycMpsAOuZf68Req7lLvs-28" edge="1">
          <mxGeometry relative="1" as="geometry">
            <mxPoint x="349.97" y="210" as="targetPoint" />
          </mxGeometry>
        </mxCell>
        <mxCell id="ycMpsAOuZf68Req7lLvs-28" value="Select a vehicle" style="rounded=1;whiteSpace=wrap;html=1;arcSize=40;fontColor=#000000;fillColor=#ffffc0;strokeColor=#ff0000;" parent="1" vertex="1">
          <mxGeometry x="299.97" y="200" width="120" height="40" as="geometry" />
        </mxCell>
        <mxCell id="ycMpsAOuZf68Req7lLvs-29" value="" style="edgeStyle=orthogonalEdgeStyle;html=1;verticalAlign=bottom;endArrow=open;endSize=8;strokeColor=#ff0000;rounded=0;exitX=0.5;exitY=1;exitDx=0;exitDy=0;" parent="1" source="ycMpsAOuZf68Req7lLvs-28" target="ycMpsAOuZf68Req7lLvs-30" edge="1">
          <mxGeometry relative="1" as="geometry">
            <mxPoint x="599.97" y="310" as="targetPoint" />
            <mxPoint x="349.97" y="250" as="sourcePoint" />
            <Array as="points">
              <mxPoint x="359.97" y="280" />
              <mxPoint x="849.97" y="280" />
            </Array>
          </mxGeometry>
        </mxCell>
        <mxCell id="ycMpsAOuZf68Req7lLvs-30" value="Display Vehicle Details Page" style="rounded=1;whiteSpace=wrap;html=1;arcSize=40;fontColor=#000000;fillColor=#ffffc0;strokeColor=#ff0000;" parent="1" vertex="1">
          <mxGeometry x="790" y="300" width="120" height="40" as="geometry" />
        </mxCell>
        <mxCell id="ycMpsAOuZf68Req7lLvs-31" value="" style="edgeStyle=orthogonalEdgeStyle;html=1;verticalAlign=bottom;endArrow=open;endSize=8;strokeColor=#ff0000;rounded=0;entryX=0.5;entryY=0;entryDx=0;entryDy=0;" parent="1" source="ycMpsAOuZf68Req7lLvs-30" target="ycMpsAOuZf68Req7lLvs-35" edge="1">
          <mxGeometry relative="1" as="geometry">
            <mxPoint x="349.97" y="360" as="targetPoint" />
            <Array as="points">
              <mxPoint x="849.97" y="360" />
              <mxPoint x="359.97" y="360" />
            </Array>
          </mxGeometry>
        </mxCell>
        <mxCell id="ycMpsAOuZf68Req7lLvs-35" value="Check Availability" style="rounded=1;whiteSpace=wrap;html=1;arcSize=40;fontColor=#000000;fillColor=#ffffc0;strokeColor=#ff0000;" parent="1" vertex="1">
          <mxGeometry x="299.97" y="400" width="120" height="40" as="geometry" />
        </mxCell>
        <mxCell id="ycMpsAOuZf68Req7lLvs-36" value="" style="edgeStyle=orthogonalEdgeStyle;html=1;verticalAlign=bottom;endArrow=open;endSize=8;strokeColor=#ff0000;rounded=0;" parent="1" source="ycMpsAOuZf68Req7lLvs-35" target="ycMpsAOuZf68Req7lLvs-37" edge="1">
          <mxGeometry relative="1" as="geometry">
            <mxPoint x="359.97" y="470" as="targetPoint" />
          </mxGeometry>
        </mxCell>
        <mxCell id="ycMpsAOuZf68Req7lLvs-37" value="Available" style="rhombus;whiteSpace=wrap;html=1;fontColor=#000000;fillColor=#ffffc0;strokeColor=#ff0000;" parent="1" vertex="1">
          <mxGeometry x="319.97" y="480" width="80" height="40" as="geometry" />
        </mxCell>
        <mxCell id="ycMpsAOuZf68Req7lLvs-39" value="yes" style="edgeStyle=orthogonalEdgeStyle;html=1;align=left;verticalAlign=top;endArrow=open;endSize=8;strokeColor=#ff0000;rounded=0;" parent="1" source="ycMpsAOuZf68Req7lLvs-37" edge="1">
          <mxGeometry x="-1" relative="1" as="geometry">
            <mxPoint x="359.97" y="560" as="targetPoint" />
          </mxGeometry>
        </mxCell>
        <mxCell id="ycMpsAOuZf68Req7lLvs-40" value="no" style="edgeStyle=orthogonalEdgeStyle;html=1;align=left;verticalAlign=bottom;endArrow=open;endSize=8;strokeColor=#ff0000;rounded=0;exitX=0;exitY=0.5;exitDx=0;exitDy=0;entryX=0;entryY=0.5;entryDx=0;entryDy=0;" parent="1" source="ycMpsAOuZf68Req7lLvs-37" target="ycMpsAOuZf68Req7lLvs-28" edge="1">
          <mxGeometry x="-0.8824" relative="1" as="geometry">
            <mxPoint x="199.97" y="500" as="targetPoint" />
            <mxPoint x="199.97" y="490" as="sourcePoint" />
            <Array as="points">
              <mxPoint x="279.97" y="500" />
              <mxPoint x="279.97" y="220" />
            </Array>
            <mxPoint as="offset" />
          </mxGeometry>
        </mxCell>
        <mxCell id="ycMpsAOuZf68Req7lLvs-41" value="Place a Booking Request" style="rounded=1;whiteSpace=wrap;html=1;arcSize=40;fontColor=#000000;fillColor=#ffffc0;strokeColor=#ff0000;" parent="1" vertex="1">
          <mxGeometry x="299.97" y="560" width="120" height="40" as="geometry" />
        </mxCell>
        <mxCell id="ycMpsAOuZf68Req7lLvs-42" value="" style="edgeStyle=orthogonalEdgeStyle;html=1;verticalAlign=bottom;endArrow=open;endSize=8;strokeColor=#ff0000;rounded=0;exitX=1;exitY=0.5;exitDx=0;exitDy=0;entryX=0;entryY=0.5;entryDx=0;entryDy=0;" parent="1" source="ycMpsAOuZf68Req7lLvs-41" target="ycMpsAOuZf68Req7lLvs-49" edge="1">
          <mxGeometry relative="1" as="geometry">
            <mxPoint x="359.97" y="640" as="targetPoint" />
          </mxGeometry>
        </mxCell>
        <mxCell id="ycMpsAOuZf68Req7lLvs-47" value="Vehicle Owner" style="text;html=1;strokeColor=none;fillColor=none;align=center;verticalAlign=middle;whiteSpace=wrap;rounded=0;" parent="1" vertex="1">
          <mxGeometry x="545" y="10" width="110" height="30" as="geometry" />
        </mxCell>
        <mxCell id="ycMpsAOuZf68Req7lLvs-48" value="System" style="text;html=1;strokeColor=none;fillColor=none;align=center;verticalAlign=middle;whiteSpace=wrap;rounded=0;" parent="1" vertex="1">
          <mxGeometry x="785" y="10" width="110" height="30" as="geometry" />
        </mxCell>
        <mxCell id="ycMpsAOuZf68Req7lLvs-49" value="Display Booking Reques" style="rounded=1;whiteSpace=wrap;html=1;arcSize=40;fontColor=#000000;fillColor=#ffffc0;strokeColor=#ff0000;" parent="1" vertex="1">
          <mxGeometry x="500" y="560" width="120" height="40" as="geometry" />
        </mxCell>
        <mxCell id="ycMpsAOuZf68Req7lLvs-50" value="" style="edgeStyle=orthogonalEdgeStyle;html=1;verticalAlign=bottom;endArrow=open;endSize=8;strokeColor=#ff0000;rounded=0;" parent="1" source="ycMpsAOuZf68Req7lLvs-49" edge="1">
          <mxGeometry relative="1" as="geometry">
            <mxPoint x="530" y="640" as="targetPoint" />
          </mxGeometry>
        </mxCell>
        <mxCell id="ycMpsAOuZf68Req7lLvs-57" value="Hire" style="rhombus;whiteSpace=wrap;html=1;fontColor=#000000;fillColor=#ffffc0;strokeColor=#ff0000;" parent="1" vertex="1">
          <mxGeometry x="490" y="640" width="80" height="40" as="geometry" />
        </mxCell>
        <mxCell id="ycMpsAOuZf68Req7lLvs-58" value="Yes" style="edgeStyle=orthogonalEdgeStyle;html=1;align=left;verticalAlign=bottom;endArrow=open;endSize=8;strokeColor=#ff0000;rounded=0;entryX=0;entryY=0.5;entryDx=0;entryDy=0;" parent="1" source="ycMpsAOuZf68Req7lLvs-57" target="ycMpsAOuZf68Req7lLvs-60" edge="1">
          <mxGeometry x="-1" relative="1" as="geometry">
            <mxPoint x="700" y="660" as="targetPoint" />
          </mxGeometry>
        </mxCell>
        <mxCell id="ycMpsAOuZf68Req7lLvs-59" value="No" style="edgeStyle=orthogonalEdgeStyle;html=1;align=left;verticalAlign=top;endArrow=open;endSize=8;strokeColor=#ff0000;rounded=0;entryX=0.25;entryY=0.5;entryDx=0;entryDy=0;entryPerimeter=0;" parent="1" source="ycMpsAOuZf68Req7lLvs-57" target="ycMpsAOuZf68Req7lLvs-80" edge="1">
          <mxGeometry x="-1" relative="1" as="geometry">
            <mxPoint x="530" y="750" as="targetPoint" />
          </mxGeometry>
        </mxCell>
        <mxCell id="ycMpsAOuZf68Req7lLvs-60" value="is driver &lt;br&gt;available" style="rhombus;whiteSpace=wrap;html=1;fontColor=#000000;fillColor=#ffffc0;strokeColor=#ff0000;" parent="1" vertex="1">
          <mxGeometry x="620" y="635" width="100" height="50" as="geometry" />
        </mxCell>
        <mxCell id="ycMpsAOuZf68Req7lLvs-62" value="yes" style="edgeStyle=orthogonalEdgeStyle;html=1;align=left;verticalAlign=top;endArrow=open;endSize=8;strokeColor=#ff0000;rounded=0;entryX=0.75;entryY=0.5;entryDx=0;entryDy=0;entryPerimeter=0;" parent="1" source="ycMpsAOuZf68Req7lLvs-60" target="ycMpsAOuZf68Req7lLvs-80" edge="1">
          <mxGeometry x="-1" relative="1" as="geometry">
            <mxPoint x="670" y="780" as="targetPoint" />
            <Array as="points">
              <mxPoint x="670" y="750" />
              <mxPoint x="660" y="750" />
            </Array>
          </mxGeometry>
        </mxCell>
        <mxCell id="ycMpsAOuZf68Req7lLvs-63" value="Display Booking fail with Reason" style="rounded=1;whiteSpace=wrap;html=1;arcSize=40;fontColor=#000000;fillColor=#ffffc0;strokeColor=#ff0000;" parent="1" vertex="1">
          <mxGeometry x="790" y="800" width="120" height="40" as="geometry" />
        </mxCell>
        <mxCell id="ycMpsAOuZf68Req7lLvs-64" value="" style="edgeStyle=orthogonalEdgeStyle;html=1;verticalAlign=bottom;endArrow=open;endSize=8;strokeColor=#ff0000;rounded=0;" parent="1" source="ycMpsAOuZf68Req7lLvs-63" target="ycMpsAOuZf68Req7lLvs-70" edge="1">
          <mxGeometry relative="1" as="geometry">
            <mxPoint x="850" y="905" as="targetPoint" />
          </mxGeometry>
        </mxCell>
        <mxCell id="ycMpsAOuZf68Req7lLvs-70" value="Display Other Vehicles" style="rounded=1;whiteSpace=wrap;html=1;arcSize=40;fontColor=#000000;fillColor=#ffffc0;strokeColor=#ff0000;" parent="1" vertex="1">
          <mxGeometry x="790" y="885" width="120" height="40" as="geometry" />
        </mxCell>
        <mxCell id="ycMpsAOuZf68Req7lLvs-73" value="" style="ellipse;html=1;shape=endState;fillColor=#000000;strokeColor=#ff0000;" parent="1" vertex="1">
          <mxGeometry x="835" y="1105" width="30" height="30" as="geometry" />
        </mxCell>
        <mxCell id="ycMpsAOuZf68Req7lLvs-74" value="" style="edgeStyle=orthogonalEdgeStyle;html=1;align=left;verticalAlign=top;endArrow=open;endSize=8;strokeColor=#ff0000;rounded=0;entryX=0.5;entryY=0;entryDx=0;entryDy=0;exitX=0.5;exitY=1;exitDx=0;exitDy=0;" parent="1" source="ycMpsAOuZf68Req7lLvs-70" target="ycMpsAOuZf68Req7lLvs-73" edge="1">
          <mxGeometry x="-1" relative="1" as="geometry">
            <mxPoint x="600" y="925" as="targetPoint" />
            <mxPoint x="600" y="855" as="sourcePoint" />
          </mxGeometry>
        </mxCell>
        <mxCell id="ycMpsAOuZf68Req7lLvs-76" value="No" style="edgeStyle=orthogonalEdgeStyle;html=1;align=left;verticalAlign=bottom;endArrow=open;endSize=8;strokeColor=#ff0000;rounded=0;entryX=0.5;entryY=0;entryDx=0;entryDy=0;" parent="1" target="ycMpsAOuZf68Req7lLvs-63" edge="1">
          <mxGeometry x="-1" relative="1" as="geometry">
            <mxPoint x="780" y="660" as="targetPoint" />
            <mxPoint x="720" y="659.74" as="sourcePoint" />
          </mxGeometry>
        </mxCell>
        <mxCell id="ycMpsAOuZf68Req7lLvs-80" value="" style="shape=line;html=1;strokeWidth=6;strokeColor=#ff0000;" parent="1" vertex="1">
          <mxGeometry x="510" y="815" width="200" height="10" as="geometry" />
        </mxCell>
        <mxCell id="ycMpsAOuZf68Req7lLvs-81" value="" style="edgeStyle=orthogonalEdgeStyle;html=1;verticalAlign=bottom;endArrow=open;endSize=8;strokeColor=#ff0000;rounded=0;entryX=1;entryY=0.5;entryDx=0;entryDy=0;" parent="1" source="ycMpsAOuZf68Req7lLvs-80" target="ycMpsAOuZf68Req7lLvs-83" edge="1">
          <mxGeometry relative="1" as="geometry">
            <mxPoint x="610" y="880" as="targetPoint" />
            <Array as="points">
              <mxPoint x="610" y="870" />
            </Array>
          </mxGeometry>
        </mxCell>
        <mxCell id="ycMpsAOuZf68Req7lLvs-83" value="display estimate cost&amp;nbsp;" style="rounded=1;whiteSpace=wrap;html=1;arcSize=40;fontColor=#000000;fillColor=#ffffc0;strokeColor=#ff0000;" parent="1" vertex="1">
          <mxGeometry x="295" y="850" width="120" height="40" as="geometry" />
        </mxCell>
        <mxCell id="ycMpsAOuZf68Req7lLvs-84" value="" style="edgeStyle=orthogonalEdgeStyle;html=1;verticalAlign=bottom;endArrow=open;endSize=8;strokeColor=#ff0000;rounded=0;" parent="1" source="ycMpsAOuZf68Req7lLvs-83" target="ycMpsAOuZf68Req7lLvs-85" edge="1">
          <mxGeometry relative="1" as="geometry">
            <mxPoint x="355" y="920" as="targetPoint" />
          </mxGeometry>
        </mxCell>
        <mxCell id="ycMpsAOuZf68Req7lLvs-85" value="pay booking fee" style="rounded=1;whiteSpace=wrap;html=1;arcSize=40;fontColor=#000000;fillColor=#ffffc0;strokeColor=#ff0000;" parent="1" vertex="1">
          <mxGeometry x="295" y="920" width="120" height="40" as="geometry" />
        </mxCell>
        <mxCell id="ycMpsAOuZf68Req7lLvs-86" value="" style="edgeStyle=orthogonalEdgeStyle;html=1;verticalAlign=bottom;endArrow=open;endSize=8;strokeColor=#ff0000;rounded=0;exitX=1;exitY=0.5;exitDx=0;exitDy=0;entryX=0.085;entryY=0.508;entryDx=0;entryDy=0;entryPerimeter=0;" parent="1" source="ycMpsAOuZf68Req7lLvs-85" target="ycMpsAOuZf68Req7lLvs-87" edge="1">
          <mxGeometry relative="1" as="geometry">
            <mxPoint x="355" y="1000" as="targetPoint" />
          </mxGeometry>
        </mxCell>
        <mxCell id="ycMpsAOuZf68Req7lLvs-87" value="" style="rhombus;whiteSpace=wrap;html=1;fontColor=#000000;fillColor=#ffffc0;strokeColor=#ff0000;" parent="1" vertex="1">
          <mxGeometry x="560" y="920" width="80" height="40" as="geometry" />
        </mxCell>
        <mxCell id="ycMpsAOuZf68Req7lLvs-88" value="payment Problem" style="edgeStyle=orthogonalEdgeStyle;html=1;align=left;verticalAlign=bottom;endArrow=open;endSize=8;strokeColor=#ff0000;rounded=0;entryX=0;entryY=0.5;entryDx=0;entryDy=0;" parent="1" source="ycMpsAOuZf68Req7lLvs-87" target="ycMpsAOuZf68Req7lLvs-63" edge="1">
          <mxGeometry x="-1" relative="1" as="geometry">
            <mxPoint x="740" y="940" as="targetPoint" />
            <Array as="points">
              <mxPoint x="750" y="940" />
              <mxPoint x="750" y="820" />
            </Array>
          </mxGeometry>
        </mxCell>
        <mxCell id="ycMpsAOuZf68Req7lLvs-89" value="Payment Success" style="edgeStyle=orthogonalEdgeStyle;html=1;align=left;verticalAlign=top;endArrow=open;endSize=8;strokeColor=#ff0000;rounded=0;" parent="1" source="ycMpsAOuZf68Req7lLvs-87" edge="1">
          <mxGeometry x="-1" relative="1" as="geometry">
            <mxPoint x="600" y="1020" as="targetPoint" />
          </mxGeometry>
        </mxCell>
        <mxCell id="ycMpsAOuZf68Req7lLvs-91" value="reserve the vehicle" style="rounded=1;whiteSpace=wrap;html=1;arcSize=40;fontColor=#000000;fillColor=#ffffc0;strokeColor=#ff0000;" parent="1" vertex="1">
          <mxGeometry x="540" y="1020" width="120" height="40" as="geometry" />
        </mxCell>
        <mxCell id="ycMpsAOuZf68Req7lLvs-92" value="" style="edgeStyle=orthogonalEdgeStyle;html=1;verticalAlign=bottom;endArrow=open;endSize=8;strokeColor=#ff0000;rounded=0;entryX=0.5;entryY=0;entryDx=0;entryDy=0;" parent="1" source="ycMpsAOuZf68Req7lLvs-91" target="ycMpsAOuZf68Req7lLvs-93" edge="1">
          <mxGeometry relative="1" as="geometry">
            <mxPoint x="600" y="1100" as="targetPoint" />
          </mxGeometry>
        </mxCell>
        <mxCell id="ycMpsAOuZf68Req7lLvs-93" value="Update Vehicle availability" style="rounded=1;whiteSpace=wrap;html=1;arcSize=40;fontColor=#000000;fillColor=#ffffc0;strokeColor=#ff0000;" parent="1" vertex="1">
          <mxGeometry x="540" y="1100" width="120" height="40" as="geometry" />
        </mxCell>
        <mxCell id="ycMpsAOuZf68Req7lLvs-94" value="" style="edgeStyle=orthogonalEdgeStyle;html=1;verticalAlign=bottom;endArrow=open;endSize=8;strokeColor=#ff0000;rounded=0;entryX=0;entryY=0.5;entryDx=0;entryDy=0;" parent="1" source="ycMpsAOuZf68Req7lLvs-93" target="ycMpsAOuZf68Req7lLvs-73" edge="1">
          <mxGeometry relative="1" as="geometry">
            <mxPoint x="600" y="1180" as="targetPoint" />
            <Array as="points">
              <mxPoint x="830" y="1120" />
              <mxPoint x="830" y="1120" />
            </Array>
          </mxGeometry>
        </mxCell>
        <mxCell id="Yn7CQm0V510Ojax7ms9k-1" value="Get vehicle form owner" style="rounded=1;whiteSpace=wrap;html=1;arcSize=40;fontColor=#000000;fillColor=#ffffc0;strokeColor=#ff0000;" vertex="1" parent="1">
          <mxGeometry x="300" y="1100" width="120" height="40" as="geometry" />
        </mxCell>
        <mxCell id="Yn7CQm0V510Ojax7ms9k-2" value="" style="edgeStyle=orthogonalEdgeStyle;html=1;verticalAlign=bottom;endArrow=open;endSize=8;strokeColor=#ff0000;rounded=0;entryX=1;entryY=0.5;entryDx=0;entryDy=0;exitX=0;exitY=0.5;exitDx=0;exitDy=0;" edge="1" parent="1" source="ycMpsAOuZf68Req7lLvs-93" target="Yn7CQm0V510Ojax7ms9k-1">
          <mxGeometry relative="1" as="geometry">
            <mxPoint x="610" y="1110" as="targetPoint" />
            <mxPoint x="610" y="1070" as="sourcePoint" />
          </mxGeometry>
        </mxCell>
        <mxCell id="Yn7CQm0V510Ojax7ms9k-3" value="Get vehicle form owner" style="rounded=1;whiteSpace=wrap;html=1;arcSize=40;fontColor=#000000;fillColor=#ffffc0;strokeColor=#ff0000;" vertex="1" parent="1">
          <mxGeometry x="299.97" y="1200" width="120" height="40" as="geometry" />
        </mxCell>
        <mxCell id="Yn7CQm0V510Ojax7ms9k-4" value="" style="edgeStyle=orthogonalEdgeStyle;html=1;verticalAlign=bottom;endArrow=open;endSize=8;strokeColor=#ff0000;rounded=0;exitX=0.5;exitY=1;exitDx=0;exitDy=0;" edge="1" parent="1" source="Yn7CQm0V510Ojax7ms9k-1" target="Yn7CQm0V510Ojax7ms9k-3">
          <mxGeometry relative="1" as="geometry">
            <mxPoint x="430" y="1130" as="targetPoint" />
            <mxPoint x="550" y="1130" as="sourcePoint" />
          </mxGeometry>
        </mxCell>
      </root>
    </mxGraphModel>
  </diagram>
</mxfile>
